<svg xmlns="http://www.w3.org/2000/svg" viewBox="0 0 48 48" width="48" height="48">
  <defs>
    <linearGradient id="grad1" x1="0%" y1="0%" x2="100%" y2="100%">
      <stop offset="0%" style="stop-color:#2196F3;stop-opacity:1" />
      <stop offset="100%" style="stop-color:#0D47A1;stop-opacity:1" />
    </linearGradient>
  </defs>
  <circle cx="24" cy="24" r="20" fill="url(#grad1)" opacity="0.9"/>
  <path d="M24 32 L24 28 M24 20 L24 16 M16 24 L20 24 M28 24 L32 24" stroke="white" stroke-width="2" stroke-linecap="round"/>
  <path d="M14 30 Q19 25 24 30" fill="none" stroke="white" stroke-width="2" stroke-linecap="round"/>
  <path d="M10 34 Q17 27 24 34" fill="none" stroke="white" stroke-width="2" stroke-linecap="round"/>
  <path d="M18 18 Q20 16 22 18" fill="none" stroke="white" stroke-width="1.5" stroke-linecap="round"/>
  <path d="M30 16 L34 12 L36 14 L32 18 L30 16Z" fill="#4CAF50" stroke="none"/>
  <circle cx="36" cy="36" r="6" fill="#FFC107" stroke="none" opacity="0.3"/>
  <path d="M36 32 L36 40 M32 36 L40 36" stroke="#FFC107" stroke-width="2" stroke-linecap="round" stroke-dasharray="2 2"/>
</svg>
